<mxfile host="app.diagrams.net" modified="2023-12-05T08:09:10.964Z" agent="Mozilla/5.0 (Macintosh; Intel Mac OS X 10_15_7) AppleWebKit/537.36 (KHTML, like Gecko) Chrome/119.0.0.0 Safari/537.36" etag="k8eGMkwPvpv3dZPzcemh" version="22.1.5" type="github">
  <diagram name="第 1 页" id="2R2rVcs6q0Jt8rsSX9Mg">
    <mxGraphModel dx="1434" dy="789" grid="0" gridSize="10" guides="1" tooltips="1" connect="1" arrows="1" fold="1" page="1" pageScale="1" pageWidth="1200" pageHeight="1920" math="0" shadow="0">
      <root>
        <mxCell id="0" />
        <mxCell id="1" parent="0" />
        <mxCell id="gsePQzeuOMIXIta1b1gM-22" value="" style="edgeStyle=orthogonalEdgeStyle;rounded=0;orthogonalLoop=1;jettySize=auto;html=1;strokeColor=default;endArrow=none;endFill=0;" edge="1" parent="1" source="gsePQzeuOMIXIta1b1gM-20" target="gsePQzeuOMIXIta1b1gM-21">
          <mxGeometry relative="1" as="geometry" />
        </mxCell>
        <mxCell id="gsePQzeuOMIXIta1b1gM-20" value="-" style="ellipse;whiteSpace=wrap;html=1;aspect=fixed;" vertex="1" parent="1">
          <mxGeometry x="502" y="117" width="37" height="37" as="geometry" />
        </mxCell>
        <mxCell id="gsePQzeuOMIXIta1b1gM-21" value="a" style="ellipse;whiteSpace=wrap;html=1;aspect=fixed;" vertex="1" parent="1">
          <mxGeometry x="502" y="195" width="37" height="37" as="geometry" />
        </mxCell>
        <mxCell id="gsePQzeuOMIXIta1b1gM-23" value="" style="rounded=0;orthogonalLoop=1;jettySize=auto;html=1;strokeColor=default;endArrow=none;endFill=0;exitX=0;exitY=1;exitDx=0;exitDy=0;" edge="1" parent="1" target="gsePQzeuOMIXIta1b1gM-24" source="gsePQzeuOMIXIta1b1gM-21">
          <mxGeometry relative="1" as="geometry">
            <mxPoint x="504" y="239" as="sourcePoint" />
          </mxGeometry>
        </mxCell>
        <mxCell id="gsePQzeuOMIXIta1b1gM-24" value="b" style="ellipse;whiteSpace=wrap;html=1;aspect=fixed;" vertex="1" parent="1">
          <mxGeometry x="424" y="234.99999999999997" width="37" height="37" as="geometry" />
        </mxCell>
        <mxCell id="gsePQzeuOMIXIta1b1gM-25" value="" style="rounded=0;orthogonalLoop=1;jettySize=auto;html=1;strokeColor=default;endArrow=none;endFill=0;exitX=1;exitY=1;exitDx=0;exitDy=0;" edge="1" parent="1" target="gsePQzeuOMIXIta1b1gM-26" source="gsePQzeuOMIXIta1b1gM-21">
          <mxGeometry relative="1" as="geometry">
            <mxPoint x="549" y="260" as="sourcePoint" />
          </mxGeometry>
        </mxCell>
        <mxCell id="gsePQzeuOMIXIta1b1gM-26" value="c" style="ellipse;whiteSpace=wrap;html=1;aspect=fixed;" vertex="1" parent="1">
          <mxGeometry x="622" y="235" width="37" height="37" as="geometry" />
        </mxCell>
        <mxCell id="gsePQzeuOMIXIta1b1gM-27" value="" style="rounded=0;orthogonalLoop=1;jettySize=auto;html=1;strokeColor=default;endArrow=none;endFill=0;exitX=0;exitY=1;exitDx=0;exitDy=0;" edge="1" parent="1" target="gsePQzeuOMIXIta1b1gM-28" source="gsePQzeuOMIXIta1b1gM-24">
          <mxGeometry relative="1" as="geometry">
            <mxPoint x="427" y="309" as="sourcePoint" />
          </mxGeometry>
        </mxCell>
        <mxCell id="gsePQzeuOMIXIta1b1gM-28" value="c" style="ellipse;whiteSpace=wrap;html=1;aspect=fixed;" vertex="1" parent="1">
          <mxGeometry x="262.5" y="302" width="37" height="37" as="geometry" />
        </mxCell>
        <mxCell id="gsePQzeuOMIXIta1b1gM-29" value="" style="rounded=0;orthogonalLoop=1;jettySize=auto;html=1;strokeColor=default;endArrow=none;endFill=0;exitX=0.5;exitY=1;exitDx=0;exitDy=0;" edge="1" parent="1" target="gsePQzeuOMIXIta1b1gM-30" source="gsePQzeuOMIXIta1b1gM-24">
          <mxGeometry relative="1" as="geometry">
            <mxPoint x="484" y="354" as="sourcePoint" />
          </mxGeometry>
        </mxCell>
        <mxCell id="gsePQzeuOMIXIta1b1gM-30" value="d" style="ellipse;whiteSpace=wrap;html=1;aspect=fixed;" vertex="1" parent="1">
          <mxGeometry x="424" y="302" width="37" height="37" as="geometry" />
        </mxCell>
        <mxCell id="gsePQzeuOMIXIta1b1gM-31" value="" style="rounded=0;orthogonalLoop=1;jettySize=auto;html=1;strokeColor=default;endArrow=none;endFill=0;exitX=1;exitY=1;exitDx=0;exitDy=0;" edge="1" parent="1" target="gsePQzeuOMIXIta1b1gM-32" source="gsePQzeuOMIXIta1b1gM-24">
          <mxGeometry relative="1" as="geometry">
            <mxPoint x="516.5814754519513" y="302.0014754519513" as="sourcePoint" />
          </mxGeometry>
        </mxCell>
        <mxCell id="gsePQzeuOMIXIta1b1gM-32" value="e" style="ellipse;whiteSpace=wrap;html=1;aspect=fixed;" vertex="1" parent="1">
          <mxGeometry x="515" y="302" width="37" height="37" as="geometry" />
        </mxCell>
        <mxCell id="gsePQzeuOMIXIta1b1gM-33" value="" style="rounded=0;orthogonalLoop=1;jettySize=auto;html=1;strokeColor=default;endArrow=none;endFill=0;exitX=0.5;exitY=1;exitDx=0;exitDy=0;" edge="1" parent="1" target="gsePQzeuOMIXIta1b1gM-34" source="gsePQzeuOMIXIta1b1gM-26">
          <mxGeometry relative="1" as="geometry">
            <mxPoint x="604" y="276" as="sourcePoint" />
          </mxGeometry>
        </mxCell>
        <mxCell id="gsePQzeuOMIXIta1b1gM-34" value="b" style="ellipse;whiteSpace=wrap;html=1;aspect=fixed;" vertex="1" parent="1">
          <mxGeometry x="622.5" y="305" width="37" height="37" as="geometry" />
        </mxCell>
        <mxCell id="gsePQzeuOMIXIta1b1gM-37" value="" style="rounded=0;orthogonalLoop=1;jettySize=auto;html=1;strokeColor=default;endArrow=none;endFill=0;exitX=0;exitY=1;exitDx=0;exitDy=0;" edge="1" parent="1" target="gsePQzeuOMIXIta1b1gM-38" source="gsePQzeuOMIXIta1b1gM-28">
          <mxGeometry relative="1" as="geometry">
            <mxPoint x="362.4185245480487" y="342.0014754519513" as="sourcePoint" />
          </mxGeometry>
        </mxCell>
        <mxCell id="gsePQzeuOMIXIta1b1gM-38" value="d" style="ellipse;whiteSpace=wrap;html=1;aspect=fixed;" vertex="1" parent="1">
          <mxGeometry x="229" y="385.26" width="37" height="37" as="geometry" />
        </mxCell>
        <mxCell id="gsePQzeuOMIXIta1b1gM-39" value="" style="rounded=0;orthogonalLoop=1;jettySize=auto;html=1;strokeColor=default;endArrow=none;endFill=0;exitX=1;exitY=1;exitDx=0;exitDy=0;" edge="1" parent="1" target="gsePQzeuOMIXIta1b1gM-40" source="gsePQzeuOMIXIta1b1gM-28">
          <mxGeometry relative="1" as="geometry">
            <mxPoint x="413.5814754519513" y="300.0014754519513" as="sourcePoint" />
          </mxGeometry>
        </mxCell>
        <mxCell id="gsePQzeuOMIXIta1b1gM-40" value="e" style="ellipse;whiteSpace=wrap;html=1;aspect=fixed;" vertex="1" parent="1">
          <mxGeometry x="296" y="385.26" width="37" height="37" as="geometry" />
        </mxCell>
        <mxCell id="gsePQzeuOMIXIta1b1gM-41" value="" style="rounded=0;orthogonalLoop=1;jettySize=auto;html=1;strokeColor=default;endArrow=none;endFill=0;exitX=0.5;exitY=1;exitDx=0;exitDy=0;" edge="1" parent="1" target="gsePQzeuOMIXIta1b1gM-42" source="gsePQzeuOMIXIta1b1gM-38">
          <mxGeometry relative="1" as="geometry">
            <mxPoint x="379" y="406" as="sourcePoint" />
          </mxGeometry>
        </mxCell>
        <mxCell id="gsePQzeuOMIXIta1b1gM-42" value="b" style="ellipse;whiteSpace=wrap;html=1;aspect=fixed;" vertex="1" parent="1">
          <mxGeometry x="231" y="459.26" width="37" height="37" as="geometry" />
        </mxCell>
        <mxCell id="gsePQzeuOMIXIta1b1gM-45" value="" style="rounded=0;orthogonalLoop=1;jettySize=auto;html=1;strokeColor=default;endArrow=none;endFill=0;exitX=0.5;exitY=1;exitDx=0;exitDy=0;" edge="1" parent="1" target="gsePQzeuOMIXIta1b1gM-46" source="gsePQzeuOMIXIta1b1gM-42">
          <mxGeometry relative="1" as="geometry">
            <mxPoint x="336" y="481.84000000000003" as="sourcePoint" />
          </mxGeometry>
        </mxCell>
        <mxCell id="gsePQzeuOMIXIta1b1gM-46" value="e" style="ellipse;whiteSpace=wrap;html=1;aspect=fixed;" vertex="1" parent="1">
          <mxGeometry x="231" y="524.0999999999999" width="37" height="37" as="geometry" />
        </mxCell>
        <mxCell id="gsePQzeuOMIXIta1b1gM-47" value="" style="rounded=0;orthogonalLoop=1;jettySize=auto;html=1;strokeColor=default;endArrow=none;endFill=0;exitX=0;exitY=1;exitDx=0;exitDy=0;" edge="1" parent="1" target="gsePQzeuOMIXIta1b1gM-48" source="gsePQzeuOMIXIta1b1gM-30">
          <mxGeometry relative="1" as="geometry">
            <mxPoint x="431.5" y="339" as="sourcePoint" />
          </mxGeometry>
        </mxCell>
        <mxCell id="gsePQzeuOMIXIta1b1gM-48" value="b" style="ellipse;whiteSpace=wrap;html=1;aspect=fixed;" vertex="1" parent="1">
          <mxGeometry x="383" y="385.26" width="37" height="37" as="geometry" />
        </mxCell>
        <mxCell id="gsePQzeuOMIXIta1b1gM-49" value="" style="rounded=0;orthogonalLoop=1;jettySize=auto;html=1;strokeColor=default;endArrow=none;endFill=0;exitX=1;exitY=1;exitDx=0;exitDy=0;" edge="1" parent="1" target="gsePQzeuOMIXIta1b1gM-50" source="gsePQzeuOMIXIta1b1gM-30">
          <mxGeometry relative="1" as="geometry">
            <mxPoint x="458.5" y="339" as="sourcePoint" />
          </mxGeometry>
        </mxCell>
        <mxCell id="gsePQzeuOMIXIta1b1gM-50" value="c" style="ellipse;whiteSpace=wrap;html=1;aspect=fixed;" vertex="1" parent="1">
          <mxGeometry x="461" y="385.26" width="37" height="37" as="geometry" />
        </mxCell>
        <mxCell id="gsePQzeuOMIXIta1b1gM-51" value="" style="rounded=0;orthogonalLoop=1;jettySize=auto;html=1;strokeColor=default;endArrow=none;endFill=0;exitX=0.5;exitY=1;exitDx=0;exitDy=0;" edge="1" parent="1" target="gsePQzeuOMIXIta1b1gM-52" source="gsePQzeuOMIXIta1b1gM-48">
          <mxGeometry relative="1" as="geometry">
            <mxPoint x="402" y="417" as="sourcePoint" />
          </mxGeometry>
        </mxCell>
        <mxCell id="gsePQzeuOMIXIta1b1gM-52" value="e" style="ellipse;whiteSpace=wrap;html=1;aspect=fixed;" vertex="1" parent="1">
          <mxGeometry x="351" y="459.26" width="37" height="37" as="geometry" />
        </mxCell>
        <mxCell id="gsePQzeuOMIXIta1b1gM-53" value="" style="rounded=0;orthogonalLoop=1;jettySize=auto;html=1;strokeColor=default;endArrow=none;endFill=0;exitX=0.5;exitY=1;exitDx=0;exitDy=0;" edge="1" parent="1" target="gsePQzeuOMIXIta1b1gM-54" source="gsePQzeuOMIXIta1b1gM-48">
          <mxGeometry relative="1" as="geometry">
            <mxPoint x="415" y="417" as="sourcePoint" />
          </mxGeometry>
        </mxCell>
        <mxCell id="gsePQzeuOMIXIta1b1gM-54" value="c" style="ellipse;whiteSpace=wrap;html=1;aspect=fixed;" vertex="1" parent="1">
          <mxGeometry x="409" y="459.26" width="37" height="37" as="geometry" />
        </mxCell>
        <mxCell id="gsePQzeuOMIXIta1b1gM-55" value="" style="rounded=0;orthogonalLoop=1;jettySize=auto;html=1;strokeColor=default;endArrow=none;endFill=0;exitX=0.5;exitY=1;exitDx=0;exitDy=0;" edge="1" parent="1" target="gsePQzeuOMIXIta1b1gM-56" source="gsePQzeuOMIXIta1b1gM-54">
          <mxGeometry relative="1" as="geometry">
            <mxPoint x="435" y="496.26" as="sourcePoint" />
          </mxGeometry>
        </mxCell>
        <mxCell id="gsePQzeuOMIXIta1b1gM-56" value="e" style="ellipse;whiteSpace=wrap;html=1;aspect=fixed;" vertex="1" parent="1">
          <mxGeometry x="409" y="524.1" width="37" height="37" as="geometry" />
        </mxCell>
        <mxCell id="gsePQzeuOMIXIta1b1gM-63" value="" style="rounded=0;orthogonalLoop=1;jettySize=auto;html=1;strokeColor=default;endArrow=none;endFill=0;exitX=0.5;exitY=1;exitDx=0;exitDy=0;" edge="1" parent="1" target="gsePQzeuOMIXIta1b1gM-64" source="gsePQzeuOMIXIta1b1gM-50">
          <mxGeometry relative="1" as="geometry">
            <mxPoint x="480" y="422.26" as="sourcePoint" />
          </mxGeometry>
        </mxCell>
        <mxCell id="gsePQzeuOMIXIta1b1gM-64" value="b" style="ellipse;whiteSpace=wrap;html=1;aspect=fixed;" vertex="1" parent="1">
          <mxGeometry x="461" y="459.26" width="37" height="37" as="geometry" />
        </mxCell>
        <mxCell id="gsePQzeuOMIXIta1b1gM-65" value="" style="rounded=0;orthogonalLoop=1;jettySize=auto;html=1;strokeColor=default;endArrow=none;endFill=0;exitX=0.5;exitY=1;exitDx=0;exitDy=0;" edge="1" parent="1" source="gsePQzeuOMIXIta1b1gM-64" target="gsePQzeuOMIXIta1b1gM-66">
          <mxGeometry relative="1" as="geometry">
            <mxPoint x="568" y="482.1" as="sourcePoint" />
          </mxGeometry>
        </mxCell>
        <mxCell id="gsePQzeuOMIXIta1b1gM-66" value="e" style="ellipse;whiteSpace=wrap;html=1;aspect=fixed;" vertex="1" parent="1">
          <mxGeometry x="461" y="524.0999999999999" width="37" height="37" as="geometry" />
        </mxCell>
        <mxCell id="gsePQzeuOMIXIta1b1gM-84" value="" style="rounded=0;orthogonalLoop=1;jettySize=auto;html=1;strokeColor=default;endArrow=none;endFill=0;exitX=0;exitY=1;exitDx=0;exitDy=0;" edge="1" parent="1" target="gsePQzeuOMIXIta1b1gM-85" source="gsePQzeuOMIXIta1b1gM-34">
          <mxGeometry relative="1" as="geometry">
            <mxPoint x="632" y="334" as="sourcePoint" />
          </mxGeometry>
        </mxCell>
        <mxCell id="gsePQzeuOMIXIta1b1gM-85" value="d" style="ellipse;whiteSpace=wrap;html=1;aspect=fixed;" vertex="1" parent="1">
          <mxGeometry x="593" y="385.26" width="37" height="37" as="geometry" />
        </mxCell>
        <mxCell id="gsePQzeuOMIXIta1b1gM-86" value="" style="rounded=0;orthogonalLoop=1;jettySize=auto;html=1;strokeColor=default;endArrow=none;endFill=0;exitX=0.5;exitY=1;exitDx=0;exitDy=0;" edge="1" parent="1" source="gsePQzeuOMIXIta1b1gM-85" target="gsePQzeuOMIXIta1b1gM-87">
          <mxGeometry relative="1" as="geometry">
            <mxPoint x="743" y="406" as="sourcePoint" />
          </mxGeometry>
        </mxCell>
        <mxCell id="gsePQzeuOMIXIta1b1gM-87" value="b" style="ellipse;whiteSpace=wrap;html=1;aspect=fixed;" vertex="1" parent="1">
          <mxGeometry x="595" y="459.26" width="37" height="37" as="geometry" />
        </mxCell>
        <mxCell id="gsePQzeuOMIXIta1b1gM-88" value="" style="rounded=0;orthogonalLoop=1;jettySize=auto;html=1;strokeColor=default;endArrow=none;endFill=0;exitX=0.5;exitY=1;exitDx=0;exitDy=0;" edge="1" parent="1" source="gsePQzeuOMIXIta1b1gM-87" target="gsePQzeuOMIXIta1b1gM-89">
          <mxGeometry relative="1" as="geometry">
            <mxPoint x="700" y="481.84000000000003" as="sourcePoint" />
          </mxGeometry>
        </mxCell>
        <mxCell id="gsePQzeuOMIXIta1b1gM-89" value="e" style="ellipse;whiteSpace=wrap;html=1;aspect=fixed;" vertex="1" parent="1">
          <mxGeometry x="595" y="524.0999999999999" width="37" height="37" as="geometry" />
        </mxCell>
        <mxCell id="gsePQzeuOMIXIta1b1gM-90" value="" style="rounded=0;orthogonalLoop=1;jettySize=auto;html=1;strokeColor=default;endArrow=none;endFill=0;exitX=1;exitY=1;exitDx=0;exitDy=0;" edge="1" parent="1" target="gsePQzeuOMIXIta1b1gM-91" source="gsePQzeuOMIXIta1b1gM-34">
          <mxGeometry relative="1" as="geometry">
            <mxPoint x="693" y="357.15999999999997" as="sourcePoint" />
          </mxGeometry>
        </mxCell>
        <mxCell id="gsePQzeuOMIXIta1b1gM-91" value="e" style="ellipse;whiteSpace=wrap;html=1;aspect=fixed;" vertex="1" parent="1">
          <mxGeometry x="659.5" y="385.2599999999999" width="37" height="37" as="geometry" />
        </mxCell>
        <mxCell id="gsePQzeuOMIXIta1b1gM-93" value="" style="ellipse;whiteSpace=wrap;html=1;aspect=fixed;labelBackgroundColor=#000000;fillColor=#000000;" vertex="1" parent="1">
          <mxGeometry x="245" y="589" width="9" height="9" as="geometry" />
        </mxCell>
        <mxCell id="gsePQzeuOMIXIta1b1gM-96" value="" style="rounded=0;orthogonalLoop=1;jettySize=auto;html=1;strokeColor=default;endArrow=none;endFill=0;exitX=0.5;exitY=1;exitDx=0;exitDy=0;entryX=0.5;entryY=0;entryDx=0;entryDy=0;" edge="1" parent="1" source="gsePQzeuOMIXIta1b1gM-46" target="gsePQzeuOMIXIta1b1gM-93">
          <mxGeometry relative="1" as="geometry">
            <mxPoint x="280" y="526" as="sourcePoint" />
            <mxPoint x="280" y="554" as="targetPoint" />
          </mxGeometry>
        </mxCell>
        <mxCell id="gsePQzeuOMIXIta1b1gM-103" value="" style="ellipse;whiteSpace=wrap;html=1;aspect=fixed;labelBackgroundColor=#000000;fillColor=#000000;direction=south;" vertex="1" parent="1">
          <mxGeometry x="310" y="450.26" width="9" height="9" as="geometry" />
        </mxCell>
        <mxCell id="gsePQzeuOMIXIta1b1gM-104" value="" style="rounded=0;orthogonalLoop=1;jettySize=auto;html=1;strokeColor=default;endArrow=none;endFill=0;exitX=0.5;exitY=1;exitDx=0;exitDy=0;entryX=0;entryY=0.5;entryDx=0;entryDy=0;" edge="1" parent="1" source="gsePQzeuOMIXIta1b1gM-40" target="gsePQzeuOMIXIta1b1gM-103">
          <mxGeometry relative="1" as="geometry">
            <mxPoint x="260" y="571" as="sourcePoint" />
            <mxPoint x="260" y="599" as="targetPoint" />
          </mxGeometry>
        </mxCell>
        <mxCell id="gsePQzeuOMIXIta1b1gM-105" value="" style="ellipse;whiteSpace=wrap;html=1;aspect=fixed;labelBackgroundColor=#000000;fillColor=#000000;direction=south;" vertex="1" parent="1">
          <mxGeometry x="365" y="524.26" width="9" height="9" as="geometry" />
        </mxCell>
        <mxCell id="gsePQzeuOMIXIta1b1gM-106" value="" style="rounded=0;orthogonalLoop=1;jettySize=auto;html=1;strokeColor=default;endArrow=none;endFill=0;entryX=0;entryY=0.5;entryDx=0;entryDy=0;" edge="1" parent="1" target="gsePQzeuOMIXIta1b1gM-105" source="gsePQzeuOMIXIta1b1gM-52">
          <mxGeometry relative="1" as="geometry">
            <mxPoint x="370" y="496" as="sourcePoint" />
            <mxPoint x="315" y="673" as="targetPoint" />
          </mxGeometry>
        </mxCell>
        <mxCell id="gsePQzeuOMIXIta1b1gM-118" value="" style="ellipse;whiteSpace=wrap;html=1;aspect=fixed;labelBackgroundColor=#000000;fillColor=#000000;direction=south;" vertex="1" parent="1">
          <mxGeometry x="424" y="589" width="9" height="9" as="geometry" />
        </mxCell>
        <mxCell id="gsePQzeuOMIXIta1b1gM-119" value="" style="ellipse;whiteSpace=wrap;html=1;aspect=fixed;labelBackgroundColor=#000000;fillColor=#000000;direction=south;" vertex="1" parent="1">
          <mxGeometry x="475" y="589" width="9" height="9" as="geometry" />
        </mxCell>
        <mxCell id="gsePQzeuOMIXIta1b1gM-121" value="" style="ellipse;whiteSpace=wrap;html=1;aspect=fixed;labelBackgroundColor=#000000;fillColor=#000000;direction=south;" vertex="1" parent="1">
          <mxGeometry x="529" y="367" width="9" height="9" as="geometry" />
        </mxCell>
        <mxCell id="gsePQzeuOMIXIta1b1gM-122" value="" style="ellipse;whiteSpace=wrap;html=1;aspect=fixed;labelBackgroundColor=#000000;fillColor=#000000;direction=south;" vertex="1" parent="1">
          <mxGeometry x="609" y="589" width="9" height="9" as="geometry" />
        </mxCell>
        <mxCell id="gsePQzeuOMIXIta1b1gM-123" value="" style="ellipse;whiteSpace=wrap;html=1;aspect=fixed;labelBackgroundColor=#000000;fillColor=#000000;direction=south;" vertex="1" parent="1">
          <mxGeometry x="673.5" y="450.26" width="9" height="9" as="geometry" />
        </mxCell>
        <mxCell id="gsePQzeuOMIXIta1b1gM-124" value="" style="rounded=0;orthogonalLoop=1;jettySize=auto;html=1;strokeColor=default;endArrow=none;endFill=0;entryX=0;entryY=0.5;entryDx=0;entryDy=0;exitX=0.5;exitY=1;exitDx=0;exitDy=0;" edge="1" parent="1" source="gsePQzeuOMIXIta1b1gM-32" target="gsePQzeuOMIXIta1b1gM-121">
          <mxGeometry relative="1" as="geometry">
            <mxPoint x="380" y="506" as="sourcePoint" />
            <mxPoint x="380" y="534" as="targetPoint" />
          </mxGeometry>
        </mxCell>
        <mxCell id="gsePQzeuOMIXIta1b1gM-125" value="" style="rounded=0;orthogonalLoop=1;jettySize=auto;html=1;strokeColor=default;endArrow=none;endFill=0;entryX=0;entryY=0.5;entryDx=0;entryDy=0;exitX=0.5;exitY=1;exitDx=0;exitDy=0;" edge="1" parent="1" source="gsePQzeuOMIXIta1b1gM-56" target="gsePQzeuOMIXIta1b1gM-118">
          <mxGeometry relative="1" as="geometry">
            <mxPoint x="390" y="516" as="sourcePoint" />
            <mxPoint x="390" y="544" as="targetPoint" />
          </mxGeometry>
        </mxCell>
        <mxCell id="gsePQzeuOMIXIta1b1gM-126" value="" style="rounded=0;orthogonalLoop=1;jettySize=auto;html=1;strokeColor=default;endArrow=none;endFill=0;entryX=0;entryY=0.5;entryDx=0;entryDy=0;exitX=0.5;exitY=1;exitDx=0;exitDy=0;" edge="1" parent="1" source="gsePQzeuOMIXIta1b1gM-66" target="gsePQzeuOMIXIta1b1gM-119">
          <mxGeometry relative="1" as="geometry">
            <mxPoint x="400" y="526" as="sourcePoint" />
            <mxPoint x="400" y="554" as="targetPoint" />
          </mxGeometry>
        </mxCell>
        <mxCell id="gsePQzeuOMIXIta1b1gM-128" value="" style="rounded=0;orthogonalLoop=1;jettySize=auto;html=1;strokeColor=default;endArrow=none;endFill=0;entryX=0;entryY=0.5;entryDx=0;entryDy=0;exitX=0.5;exitY=1;exitDx=0;exitDy=0;" edge="1" parent="1" source="gsePQzeuOMIXIta1b1gM-89" target="gsePQzeuOMIXIta1b1gM-122">
          <mxGeometry relative="1" as="geometry">
            <mxPoint x="420" y="546" as="sourcePoint" />
            <mxPoint x="420" y="574" as="targetPoint" />
          </mxGeometry>
        </mxCell>
        <mxCell id="gsePQzeuOMIXIta1b1gM-129" value="" style="rounded=0;orthogonalLoop=1;jettySize=auto;html=1;strokeColor=default;endArrow=none;endFill=0;entryX=0;entryY=0.5;entryDx=0;entryDy=0;exitX=0.5;exitY=1;exitDx=0;exitDy=0;" edge="1" parent="1" source="gsePQzeuOMIXIta1b1gM-91" target="gsePQzeuOMIXIta1b1gM-123">
          <mxGeometry relative="1" as="geometry">
            <mxPoint x="624" y="571" as="sourcePoint" />
            <mxPoint x="624" y="599" as="targetPoint" />
          </mxGeometry>
        </mxCell>
      </root>
    </mxGraphModel>
  </diagram>
</mxfile>
